<svg version="1.2" xmlns="http://www.w3.org/2000/svg" viewBox="0 0 512 512" width="512" height="512">
    <title>tshirt_female</title>
    <defs>
        <image width="248" height="512" id="img1" href="https://raw.githubusercontent.com/mylafashion/designer_models/main/models/t-shirt-female/assets/shadow_layer.png" />
        <image width="233" height="512" id="img2" href="https://raw.githubusercontent.com/mylafashion/designer_models/main/models/t-shirt-female/assets/body_layer.png" />
        <pattern isEditable="true" id="Front" patternContentUnits="objectBoundingBox" width="1" height="1">
            <image href="https://raw.githubusercontent.com/mylafashion/designer_models/main/textures/white_texture.png" preserveAspectRatio="xMidYMid slice" x="0" y="0" width="1" height="1" />
        </pattern>
        <pattern isEditable="true" id="Hands" patternContentUnits="objectBoundingBox" width="1" height="1">
            <image href="https://raw.githubusercontent.com/mylafashion/designer_models/main/textures/white_texture.png" preserveAspectRatio="xMidYMid slice" x="0" y="0" width="1" height="1" />
        </pattern>
    </defs>
    <path id="HandRightPath" fill="url(#Hands)" d="m162 216l4 4 3 4 4 5 3 5 3 5 3 8 2 3 1 5-1 6v8 6l1 4 2 5 2 5 3 3 3 3 2 3 2 3 2 3 2 4 1 6v7 5l-2 5-2 2-2 3-2 2-2 4-1 4-2 4-2 4-2 5-1 5-2 6-1 5-1 7-2 8-2 8-3 7-1 5v6l-1 5-1 5v5l-1 4-1 5-1 5-1 7v3 3l-5 1h-4l-2-2-1-5 2-6v-6l1-9 2-11 1-15v-10-20l2-14 1-13v-9l1-5 2-7v-5l1-4 1-11-1-11-2-12-1-11-1-11-2-8-2-9-1-10 1-7v-8z" />
    <path id="HandLeftPath" fill="url(#Hands)" d="m376 196l4 8 2 9 4 10 3 14-1 15-4 28v13l-1 12v21 19l-1 7v18l-4 19-4 20-3 17-2 14-2 17v10l-1 5-5-2-9-2-9-3-3-1v-6-5l1-5 1-10v-17-14-9-16-13-13l-1-6-1-2 1-2v-3l-2-1 1-2 2-3v-3l-1-4-1-3v-3l1-4v-10-9l-1-8-1-4v-14-12l-1-10v-11l2-10 1-8 2-8 3-4 4-8 6-6 6-6 6-2 4-1z" />
    <path id="FrontPath" fill="url(#Front)" d="m339 470l-9 2h-20l-32-1-49-2-26-3-24-4-11-6 1-12 2-10 3-18 1-9 3-10 3-11 2-9 2-11 3-10 4-8 3-8 4-6 4-5 2-8-1-11-2-5-4-4-1-3-8-9-3-6-2-8v-7-12l1-4-3-5-3-10-5-7-6-7-4-5-2-2v-3l3-6 4-6 6-5 4-3 8-2 7-4 10-3 6-5 7-4 7-3-2 4-2 4 2 3 6 3 8 2 14 1 11-2 11-3 12-5 7-4 7-4 5-5 2-3v-3h4l4 2 5 1 2 2 5 2 7 2 9 2 10 2 7 3 9 4 5 6 1 3-10 2-12 11-3 6-5 8-2 8-2 10-1 10v7 11l1 6v14 11l-1 17-3 14v12l1 11 1 6 1 6 2 7 1 4v8 10 12 14 9 10 11l-1 9-1 7v5l3 1z" />
    <use id="ShadowLayer" href="#img1" x="143" y="0" />
    <use id="BodyLayer" href="#img2" x="143" y="0" />
</svg>