<svg version="1.2" xmlns="http://www.w3.org/2000/svg" viewBox="0 0 512 512" width="512" height="512">
    <title>chudidhar_female</title>
    <defs>
        <image width="245" height="495" id="img1" href="https://raw.githubusercontent.com/mylafashion/designer_models/main/models/chudidhaar-female/assets/shadow_layer.png" />
        <image width="181" height="495" id="img2" href="https://raw.githubusercontent.com/mylafashion/designer_models/main/models/chudidhaar-female/assets/body_layer.png" />
        <pattern isEditable="true" id="Front" patternContentUnits="objectBoundingBox" width="1" height="1">
            <image href="https://raw.githubusercontent.com/mylafashion/designer_models/main/textures/white_texture.png" preserveAspectRatio="xMidYMid slice" x="0" y="0" width="1" height="1" />
        </pattern>
        <pattern isEditable="true" id="Hands" patternContentUnits="objectBoundingBox" width="1" height="1">
            <image href="https://raw.githubusercontent.com/mylafashion/designer_models/main/textures/white_texture.png" preserveAspectRatio="xMidYMid slice" x="0" y="0" width="1" height="1" />
        </pattern>
        <pattern isEditable="true" id="Legs" patternContentUnits="objectBoundingBox" width="1" height="1">
            <image href="https://raw.githubusercontent.com/mylafashion/designer_models/main/textures/white_texture.png" preserveAspectRatio="xMidYMid slice" x="0" y="0" width="1" height="1" />
        </pattern>
    </defs>
    <path id="LegsPath" fill="url(#Legs)" d="m229 403l4-1h6 9l6-2 4-2 3-5 2-2 4-1-3 9-3 8v9 15 6l-4 1-9 3-7-2-8-2h-2v-17l-2-10z" />
    <path id="HandPathRight" fill="url(#Hands)" d="m227 93l3 2-2 3-2 5-1 5-2 8v8 7 9l2 5 4 5v6l-2 10-3 10-3 7-4 9-5 11-4 10-3 11-6 17-2-1-4-2-4-2-4-1-2-2v-3l2-5 2-6 4-9 2-7 3-7 3-9 2-6 3-10 2-7 1-5 1-6 1-6 1-5 1-6 1-5 1-6 1-7v-7l1-6 1-4 1-4 5-5 5-3z" />
    <path id="HandPathLeft" fill="url(#Hands)" d="m328 109v11l-1 9 1 6-1 6v7l1 5 3 5 2 4 2-5 3-4 1-6 1 2v12l-1 3-6 7-9 12-8 8-3 1-3-7-2-8 1-8 1-9 1-9 3-10 2-11 2-9 2-8 7-10z" />
    <path id="FrontPath" fill="url(#Front)" d="m258 103l2 1 4 1h10 13l9-3 5-4 1-8-1-2h4l6 3 7 5 7 5 2 4-5 6-4 9-3 9-2 12-3 14-1 12v10l1 7 3 9 2 8 3 14 5 15 4 13 3 12 6 16 3 10 3 13 4 13 1 6 1 5 3 5 5 9 3 6 1 6 4 6 3 5 1 3 5 6 3 6 2 5 2 2v3l-3 3-1 7v3l-3 1-3-1-6-4-3-3-4-1-7 2-2 4-12 2h-4l-4 3-6-1-3-3-3-1-4 5-15 8-28 4-2-17-2-1-4 3-2 3-3 3-5 2-6 1h-9-6l-3 3h-10l-7 1-6-5-8-5-4-3-10-1-6-2-8-4-8-5-4-3-10-1-6-2-6-2v-6l1-8 19-65 12-6 16-10 2-4 4-7 1-5 3-4 2-5 4-10 4-10 3-10 3-9 4-9 4-12 4-8 3-8 3-6 2-5 1-5 1-10 4 5 6 3 3-2 1-14 1-8 3-8 3-6 3-7 3-6z" />
    <use id="Shadow Layer" href="#img1" x="135" y="9" />
    <use id="BodyParts" href="#img2" x="168" y="9" />
</svg>